# xmcd CD database file
#
# Track frame offsets:
#       150
#       27700
#       83275
#       106000
#       160375
#       206275
#       245950
#       261100
#       272800
#       295375
#
# Disc length: 4251 seconds
#
# Revision: 2
# Processed by: cddbd v1.5.2PL0 Copyright (c) Steve Scherf et al.
# Submitted via: CDDBEditor PBVER-PBREV
#
DISCID=8b10990a
DTITLE=LSO - Hickox - Vaughan Williams Orchestral Music
DYEAR=1998
DGENRE=Strings
TTITLE0=Valiant-for-truth (1940)
TTITLE1=Symphony No.5 in D (1938-1943) -I- Preludio: Moderato
TTITLE2=Symphony No.5 in D (1938-1943) -II- Scherzo: Presto misterioso
TTITLE3=Symphony No.5 in D (1938-1943) -III- Romanza: Lento
TTITLE4=Symphony No.5 in D (1938-1943) -IV- Passacaglia: Moderato
TTITLE5=The Pilgrim Pavement (1934)
TTITLE6=Hymn-tune Prelude on Song 13 by Orlando Gibbons (1930)
TTITLE7=The Twenty-third Psalm (1953)
TTITLE8=Prelude and Fugue in C minor (1930) - Prelude
TTITLE9=Prelude and Fugue in C minor (1930) - Fugue
EXTD=
EXTT0=
EXTT1=
EXTT2=
EXTT3=
EXTT4=
EXTT5=
EXTT6=
EXTT7=
EXTT8=
EXTT9=
PLAYORDER=
